<svg xmlns="http://www.w3.org/2000/svg" width="1552" height="592" viewBox="0 0 1552 592" version="1.1"><path d="M 399.780 84.030 C 389.923 95.928, 353.782 115.991, 314.500 131.372 C 304.050 135.463, 284.554 143.129, 271.175 148.406 C 257.797 153.683, 246.615 158, 246.326 158 C 246.038 158, 244.384 158.653, 242.651 159.452 C 240.918 160.250, 232.525 163.639, 224 166.983 C 215.475 170.327, 207.082 173.724, 205.349 174.532 C 203.616 175.339, 201.932 176, 201.608 176 C 201.284 176, 190.327 180.229, 177.259 185.398 C 164.192 190.566, 146.975 197.321, 139 200.409 C 117.330 208.799, 117.271 208.842, 121.475 213.378 C 122.864 214.877, 124 216.305, 124 216.552 C 124 216.798, 124.787 217.824, 125.750 218.832 C 127.755 220.931, 131.740 225.566, 137.500 232.499 C 139.700 235.147, 142.288 238.018, 143.250 238.879 C 144.213 239.740, 145 240.794, 145 241.222 C 145 241.650, 145.787 242.816, 146.750 243.813 C 147.713 244.810, 150.300 247.815, 152.500 250.490 C 154.700 253.165, 156.970 255.837, 157.544 256.427 C 160.918 259.894, 182.859 286.076, 183.168 287.004 C 183.776 288.828, 189.179 288.419, 194 286.183 C 196.475 285.035, 205.025 281.590, 213 278.528 C 220.975 275.466, 229.349 272.070, 231.610 270.981 C 233.870 269.891, 236.050 269, 236.455 269 C 236.860 269, 254.655 262.025, 276 253.500 C 297.345 244.975, 315.063 238, 315.375 238 C 315.686 238, 318.317 236.928, 321.220 235.617 C 324.124 234.307, 327.625 232.910, 329 232.514 C 330.375 232.118, 333.975 230.733, 337 229.437 C 340.025 228.141, 350.150 224.098, 359.500 220.452 C 387.785 209.424, 409.654 197.411, 418.500 188.043 C 420.700 185.713, 423.288 183.075, 424.250 182.181 C 425.212 181.287, 426 180.029, 426 179.385 C 426 178.741, 426.675 177.955, 427.500 177.638 C 428.325 177.322, 429 176.342, 429 175.460 C 429 174.578, 429.675 173.182, 430.500 172.357 C 431.325 171.532, 432 170.044, 432 169.051 C 432 168.058, 432.675 166.685, 433.500 166 C 434.351 165.294, 435 163.114, 435 160.961 C 435 158.822, 435.543 156.986, 436.245 156.752 C 437.848 156.217, 437.741 140.341, 436.123 138.723 C 435.505 138.105, 434.997 136.003, 434.994 134.050 C 434.990 132.098, 434.379 129.333, 433.635 127.907 C 432.890 126.481, 431.973 123.668, 431.595 121.657 C 431.218 119.646, 430.480 118, 429.955 118 C 429.430 118, 429 117.271, 429 116.381 C 429 114.368, 418.004 96.004, 415 93 C 414.725 92.725, 412.328 89.912, 409.673 86.750 C 404.123 80.139, 403.211 79.889, 399.780 84.030 M 210.500 311.492 C 208.850 312.243, 200.300 315.613, 191.500 318.983 C 182.700 322.353, 174.600 325.511, 173.500 326.002 C 171.058 327.091, 135.008 341.276, 126 344.691 C 122.425 346.047, 118.150 347.754, 116.500 348.486 C 112.700 350.170, 106.613 352.502, 101.624 354.185 C 95.745 356.169, 96.505 359.358, 104.945 368.113 C 105.800 369, 108.300 371.900, 110.500 374.557 C 112.700 377.215, 115.288 380.201, 116.250 381.194 C 117.213 382.187, 118 383.240, 118 383.534 C 118 383.827, 119.350 385.387, 121 387 C 122.650 388.613, 124 390.173, 124 390.466 C 124 390.760, 124.788 391.824, 125.750 392.832 C 127.755 394.931, 131.740 399.566, 137.500 406.499 C 139.700 409.147, 142.287 412.018, 143.250 412.879 C 144.213 413.740, 145 414.794, 145 415.222 C 145 415.650, 145.787 416.816, 146.750 417.813 C 147.713 418.810, 150.300 421.827, 152.500 424.518 C 154.700 427.209, 158.795 431.906, 161.601 434.956 C 164.406 438.005, 169.800 444.100, 173.587 448.500 C 177.374 452.900, 180.929 457.006, 181.486 457.624 C 182.044 458.242, 184.300 460.917, 186.500 463.568 C 188.700 466.219, 191.287 469.201, 192.250 470.194 C 193.213 471.187, 194 472.350, 194 472.778 C 194 473.206, 194.787 474.248, 195.750 475.094 C 196.713 475.941, 199.300 478.796, 201.500 481.440 C 213.719 496.123, 222.601 501.281, 245 506.699 C 257.133 509.633, 280.170 509.601, 289 506.637 C 297.942 503.636, 344.714 485.367, 352.250 481.932 C 356.292 480.090, 355.780 478.777, 347.283 469.199 C 343.038 464.414, 339.205 460.050, 338.764 459.500 C 335.684 455.655, 334.025 453.633, 330.500 449.422 C 326.557 444.712, 315.319 431.446, 310.150 425.400 C 308.693 423.694, 305.855 420.319, 303.845 417.900 C 301.835 415.480, 299.205 412.375, 298 411 C 296.795 409.625, 294.165 406.512, 292.155 404.083 C 290.145 401.654, 287.043 398.054, 285.263 396.083 C 283.206 393.807, 282.228 391.861, 282.580 390.750 C 282.982 389.481, 282.584 389, 281.132 389 C 278.820 389, 278.051 388.146, 241.099 344.500 C 226.199 326.900, 214.217 311.938, 214.472 311.250 C 215.046 309.707, 214.330 309.750, 210.500 311.492" stroke="none" fill="#35d9fb" fill-rule="evenodd"/><path d="M 1019.296 196.843 C 1018.705 197.222, 1017.966 205.316, 1017.546 216 C 1017.147 226.175, 1016.471 234.950, 1016.046 235.500 C 1015.620 236.050, 1015.003 241.141, 1014.674 246.813 L 1014.076 257.126 1016.788 256.813 C 1018.907 256.568, 1019.569 255.899, 1019.816 253.750 C 1019.990 252.238, 1020.503 251, 1020.955 251 C 1021.407 251, 1022.083 249.370, 1022.457 247.377 C 1022.831 245.384, 1023.556 243.022, 1024.068 242.127 C 1024.580 241.232, 1025.448 239.375, 1025.997 238 C 1026.922 235.684, 1027.944 233.899, 1030.500 230.138 C 1040.905 214.825, 1070.816 206.370, 1080.459 216.015 C 1083.696 219.253, 1083.670 377.291, 1080.432 380.767 C 1077.650 383.753, 1069.880 385.976, 1062.180 385.989 C 1056.201 385.999, 1055.878 386.121, 1056.180 388.250 L 1056.500 390.500 1098.174 390.669 C 1134.514 390.816, 1139.922 390.645, 1140.427 389.329 C 1141.409 386.770, 1140.086 386, 1134.691 385.994 C 1125.281 385.984, 1117.309 383.079, 1116.365 379.317 C 1116.045 378.042, 1115.382 377, 1114.892 377 C 1113.246 377, 1113.760 220.097, 1115.411 218.446 C 1116.187 217.671, 1116.980 216.561, 1117.173 215.982 C 1120.379 206.362, 1164 216.608, 1164 226.980 C 1164 227.576, 1164.675 228.322, 1165.500 228.638 C 1166.325 228.955, 1167 230.080, 1167 231.138 C 1167 232.197, 1167.675 233.322, 1168.500 233.638 C 1169.325 233.955, 1170 235.430, 1170 236.916 C 1170 238.402, 1170.661 240.491, 1171.468 241.559 C 1172.276 242.626, 1172.951 245.383, 1172.968 247.685 C 1173.019 254.376, 1174.494 257.191, 1177.750 256.816 L 1180.500 256.500 1181.111 230.500 C 1181.447 216.200, 1182.059 202.870, 1182.471 200.877 C 1183.597 195.434, 1177.795 193.983, 1176.443 199.370 C 1175.110 204.684, 1145.172 206.272, 1068.455 205.098 C 1026.536 204.456, 1025.174 204.275, 1023.538 199.119 C 1022.846 196.939, 1020.830 195.857, 1019.296 196.843 M 578.376 202.765 C 577.757 203.169, 576.934 204.963, 576.546 206.750 C 576.158 208.537, 575.427 210, 574.921 210 C 574.414 210, 574 210.718, 574 211.596 C 574 212.473, 573.377 214.386, 572.616 215.846 C 571.855 217.306, 570.543 220.075, 569.700 222 C 568.858 223.925, 566.710 228.650, 564.927 232.500 C 563.145 236.350, 561.108 240.850, 560.402 242.500 C 557.452 249.395, 552.753 259.682, 551.426 262.154 C 550.641 263.614, 550 265.527, 550 266.404 C 550 267.282, 549.570 268, 549.045 268 C 548.520 268, 547.795 269.575, 547.434 271.500 C 547.073 273.425, 546.377 275, 545.889 275 C 545.400 275, 545 275.513, 545 276.140 C 545 276.768, 544.141 279.130, 543.091 281.390 C 539.483 289.160, 538 292.804, 538 293.901 C 538 294.506, 537.570 295, 537.045 295 C 536.520 295, 535.795 296.575, 535.434 298.500 C 535.073 300.425, 534.428 302, 534 302 C 533.572 302, 532.927 303.575, 532.566 305.500 C 532.205 307.425, 531.480 309, 530.955 309 C 530.430 309, 530 309.718, 530 310.596 C 530 311.473, 529.359 313.386, 528.574 314.846 C 527.305 317.209, 523.827 324.730, 519.255 335 C 518.398 336.925, 517.090 339.694, 516.348 341.154 C 515.607 342.614, 515 344.527, 515 345.404 C 515 346.282, 514.559 347, 514.019 347 C 513.480 347, 512.737 348.238, 512.370 349.750 C 512.002 351.262, 511.094 353.388, 510.351 354.473 C 509.608 355.557, 509 357.245, 509 358.223 C 509 359.200, 508.594 360, 508.098 360 C 507.602 360, 506.700 361.238, 506.095 362.750 C 505.489 364.262, 504.100 366.850, 503.008 368.500 C 501.916 370.150, 500.707 372.175, 500.321 373 C 497.577 378.876, 485.466 386, 478.221 386 C 475.665 386, 474.466 387.652, 475.829 389.294 C 477.173 390.914, 547.524 390.876, 549.145 389.255 C 550.920 387.480, 549.126 386, 545.191 385.994 C 521.166 385.958, 513.440 368.452, 526.290 343.168 C 527.781 340.235, 529 336.973, 529 335.918 C 529 334.863, 529.441 334, 529.981 334 C 530.520 334, 531.263 332.762, 531.630 331.250 C 531.998 329.738, 532.906 327.612, 533.649 326.527 C 534.392 325.443, 535 323.723, 535 322.706 C 535 321.689, 535.675 320.182, 536.500 319.357 C 537.325 318.532, 538 317.044, 538 316.051 C 538 315.058, 538.675 313.685, 539.500 313 C 540.325 312.315, 541 310.685, 541 309.378 C 541 308.070, 541.414 307, 541.921 307 C 542.427 307, 543.136 305.655, 543.497 304.011 C 544.459 299.635, 544.218 299.674, 571.430 299.487 C 596.995 299.313, 600 299.673, 600 302.913 C 600 303.926, 600.675 305.315, 601.500 306 C 602.325 306.685, 603 308.035, 603 309 C 603 309.965, 603.675 311.315, 604.500 312 C 605.325 312.685, 606 314.035, 606 315 C 606 315.965, 606.675 317.315, 607.500 318 C 608.325 318.685, 609 320.058, 609 321.051 C 609 322.044, 609.675 323.532, 610.500 324.357 C 611.325 325.182, 612 326.509, 612 327.306 C 612 328.103, 612.675 329.315, 613.500 330 C 614.325 330.685, 615 332.035, 615 333 C 615 333.965, 615.675 335.315, 616.500 336 C 617.325 336.685, 618 337.794, 618 338.465 C 618 339.136, 619.119 341.669, 620.487 344.093 C 621.855 346.517, 623.240 349.175, 623.566 350 C 623.891 350.825, 624.797 352.694, 625.578 354.154 C 626.360 355.614, 627 357.334, 627 357.976 C 627 358.618, 627.675 359.818, 628.500 360.643 C 629.325 361.468, 630 363.011, 630 364.071 C 630 365.132, 630.410 366, 630.912 366 C 631.414 366, 632.128 367.798, 632.499 369.995 C 632.870 372.192, 633.585 374.243, 634.087 374.554 C 639.418 377.848, 630.818 386, 622.012 386 C 617.938 386, 616.644 386.908, 617.508 389.160 C 618.092 390.683, 688.369 391.130, 690.799 389.626 C 692.577 388.525, 690.463 386, 687.763 386 C 684.093 386, 675.797 380.616, 672.386 376.021 C 670.540 373.534, 668.685 371.041, 668.265 370.481 C 666.305 367.869, 640 315.285, 640 313.979 C 640 313.441, 639.550 313, 639 313 C 638.450 313, 638 312.554, 638 312.010 C 638 310.236, 633.648 301, 632.813 301 C 632.366 301, 632 300.404, 632 299.677 C 632 298.949, 621.175 276.674, 607.943 250.177 C 582.845 199.913, 582.815 199.865, 578.376 202.765 M 379.915 231.750 C 377.852 234.110, 370.934 239.644, 364.651 243.961 C 361.818 245.907, 359.350 247.838, 359.167 248.250 C 358.983 248.662, 358.425 249, 357.927 249 C 357.428 249, 353.978 250.923, 350.260 253.273 C 342.132 258.411, 327.294 265.734, 316.434 269.968 C 312.070 271.669, 307.600 273.467, 306.500 273.965 C 305.400 274.463, 294.825 278.653, 283 283.276 C 206.284 313.269, 212.572 310.382, 215.615 314.217 C 220.801 320.752, 276.994 386.743, 278.155 387.661 C 281.055 389.953, 284.548 389.885, 290.500 387.421 C 293.800 386.054, 303.475 382.207, 312 378.871 C 320.525 375.535, 328.850 372.201, 330.500 371.462 C 332.150 370.723, 340.475 367.424, 349 364.132 C 380.173 352.092, 408 332.507, 408 322.606 C 408 321.723, 408.441 321, 408.981 321 C 409.520 321, 410.265 319.762, 410.635 318.250 C 411.005 316.738, 411.768 315.200, 412.330 314.832 C 412.892 314.465, 413.470 312.653, 413.616 310.805 C 413.762 308.956, 414.357 306.190, 414.940 304.657 C 416.297 301.089, 416.303 292.494, 414.951 287.993 C 414.374 286.072, 413.760 282.784, 413.587 280.686 C 413.413 278.588, 412.760 276.360, 412.136 275.736 C 411.511 275.111, 411 273.785, 411 272.789 C 411 268.780, 398.487 247.357, 391.555 239.500 C 389.614 237.300, 387.765 234.713, 387.446 233.750 C 387.126 232.787, 386.221 232, 385.433 232 C 384.645 232, 384 231.550, 384 231 C 384 229.400, 381.581 229.844, 379.915 231.750 M 569.433 247.412 C 569.076 248.835, 568.382 250, 567.892 250 C 567.401 250, 567 250.479, 567 251.064 C 567 251.649, 565.931 254.462, 564.625 257.314 C 554.534 279.352, 552.004 285.136, 551.395 287.562 L 550.783 290 571.471 290 L 592.159 290 591.452 286.750 C 591.063 284.962, 590.127 282.612, 589.372 281.527 C 588.618 280.443, 588 278.948, 588 278.206 C 588 277.464, 587.325 276.182, 586.500 275.357 C 585.675 274.532, 585 273.044, 585 272.051 C 585 271.058, 584.325 269.685, 583.500 269 C 582.675 268.315, 582 267.172, 582 266.459 C 582 265.115, 578.967 258.882, 577.885 258.001 C 577.546 257.725, 576.925 256.396, 576.503 255.047 C 576.081 253.697, 575.121 251.978, 574.368 251.225 C 573.616 250.473, 573 249.269, 573 248.551 C 573 245.611, 570.116 244.690, 569.433 247.412 M 920.414 248.925 C 895.903 254.008, 875.792 266.455, 865.957 282.632 C 864.664 284.759, 863.357 286.725, 863.053 287.001 C 861.808 288.129, 859 294.281, 859 295.881 C 859 296.826, 858.557 298.043, 858.015 298.585 C 853.490 303.110, 853.491 333.283, 858.018 344.500 C 860.068 349.581, 865.445 360.438, 866.500 361.627 C 867.050 362.248, 868.175 363.783, 869 365.040 C 875.902 375.556, 895.439 388.336, 908.675 390.992 C 911.879 391.635, 916.387 392.575, 918.693 393.081 C 937.765 397.263, 984.195 389.879, 987.115 382.198 C 988.235 379.252, 989.544 368.774, 990.427 355.683 L 991.022 346.865 988.261 347.183 C 986.281 347.410, 985.410 348.136, 985.180 349.750 C 985.005 350.988, 984.473 352, 983.998 352 C 983.523 352, 982.849 353.012, 982.499 354.250 C 981.592 357.457, 978.719 363.235, 977.250 364.806 C 976.563 365.541, 976 366.513, 976 366.965 C 976 369.032, 963.847 379.850, 958 382.988 C 950.526 386.998, 931.620 388.165, 924 385.086 C 918.852 383.006, 907.850 375.596, 904.988 372.281 C 902.052 368.881, 896 360.189, 896 359.372 C 896 359.059, 895.388 357.384, 894.641 355.651 C 893.893 353.918, 892.716 351.150, 892.024 349.500 C 885.615 334.199, 885.337 297.192, 891.547 285.846 C 892.346 284.386, 893 282.651, 893 281.991 C 893 281.330, 894.350 278.790, 896 276.345 C 897.650 273.900, 899 271.657, 899 271.361 C 899 258.826, 936.166 251.195, 954.407 259.983 C 961.302 263.305, 971.514 272.654, 973.269 277.250 C 973.637 278.212, 974.349 279, 974.852 279 C 975.355 279, 976.031 279.788, 976.354 280.750 C 976.678 281.712, 977.476 283.400, 978.129 284.500 C 980.269 288.108, 980.992 289.470, 981.987 291.776 C 984.053 296.559, 987.999 295.689, 988.121 290.423 C 988.449 276.314, 986.197 259.566, 983.681 257.402 C 975.575 250.429, 937.660 245.349, 920.414 248.925 M 744 251.417 C 735.809 252.247, 728.398 252.403, 722.500 251.869 C 704.338 250.225, 697 250.654, 697 253.361 C 697 255.513, 697.518 255.769, 702.855 256.253 C 718.111 257.636, 718 257.167, 718 320.396 C 718 385.148, 717.779 386, 700.976 386 C 695.747 386, 694.094 387.203, 696.062 389.575 C 697.056 390.772, 762.533 391.256, 765.750 390.091 C 768.743 389.006, 765.223 386, 760.960 386 C 747.249 386, 746.091 383.271, 745.965 350.690 L 745.867 325.500 755.037 325.500 L 764.207 325.500 766.353 329.494 C 767.534 331.690, 768.725 333.715, 769 333.994 C 769.275 334.272, 770.616 336.637, 771.979 339.250 C 773.343 341.863, 774.805 344, 775.229 344 C 775.653 344, 776 344.868, 776 345.929 C 776 346.989, 776.588 348.452, 777.306 349.179 C 778.024 349.905, 778.929 351.175, 779.317 352 C 779.705 352.825, 780.910 354.850, 781.996 356.500 C 783.082 358.150, 784.416 360.512, 784.960 361.750 C 785.505 362.988, 786.412 364, 786.975 364 C 787.539 364, 788 364.914, 788 366.031 C 788 367.149, 788.675 368.322, 789.500 368.638 C 790.325 368.955, 791 369.642, 791 370.166 C 791 371.388, 802.038 385.868, 804.975 388.500 C 808.215 391.403, 855.249 391.631, 855.808 388.747 C 855.995 387.783, 855.552 386.832, 854.824 386.633 C 854.096 386.435, 851.250 385.738, 848.500 385.084 C 838.178 382.629, 832.218 379.083, 823.621 370.281 C 818.764 365.308, 819.095 365.708, 811.413 355.500 C 789.272 326.076, 785.515 318.116, 791.750 313.833 C 798.283 309.344, 805 303.027, 805 301.373 C 805 300.618, 805.344 300, 805.764 300 C 806.740 300, 810.335 291.976, 812.259 285.500 C 813.683 280.707, 813.568 274.612, 812.012 272.500 C 811.607 271.950, 810.990 270.300, 810.640 268.834 C 807.286 254.771, 780.355 247.732, 744 251.417 M 1242.969 251.468 C 1234.426 252.058, 1223.401 252.233, 1218.469 251.857 C 1194.346 250.020, 1177.159 253.808, 1198.791 256.194 C 1207.446 257.148, 1212 260.040, 1212 264.582 C 1212 266.462, 1212.450 268, 1213 268 C 1214.306 268, 1214.373 370.985, 1213.069 374.203 C 1212.557 375.466, 1211.884 377.697, 1211.573 379.159 C 1210.803 382.782, 1204.062 386, 1197.243 386 C 1191.847 386, 1190.067 387.170, 1191.972 389.466 C 1193.556 391.375, 1260.316 391.084, 1262.240 389.160 C 1263.996 387.404, 1261.592 386.056, 1256.500 385.939 C 1240.941 385.584, 1241.500 387.997, 1241.500 321.177 C 1241.500 254.555, 1240.779 257.941, 1255.304 256.309 C 1262.711 255.477, 1264.733 253.366, 1260.194 251.204 C 1259.262 250.760, 1251.511 250.879, 1242.969 251.468 M 1280.250 250.742 C 1275.917 252.214, 1279.126 255.723, 1285.337 256.303 C 1293.163 257.033, 1296.189 258.357, 1298.335 261.990 C 1301.003 266.506, 1300.801 377.461, 1298.119 380.673 C 1295.538 383.764, 1289.559 386, 1283.878 386 C 1278.770 386, 1276.589 389.100, 1280.765 390.425 C 1283.405 391.263, 1346.679 390.816, 1348.081 389.950 C 1350.766 388.291, 1348.131 386, 1343.538 386 C 1329.628 386, 1328.565 383.740, 1328.188 353.355 L 1327.877 328.210 1331.042 324.605 C 1335.252 319.811, 1335.855 319.967, 1341.213 327.250 C 1343.742 330.688, 1346.641 334.471, 1347.655 335.657 C 1348.670 336.843, 1350.175 338.797, 1351 340 C 1351.825 341.203, 1353.279 343.157, 1354.231 344.343 C 1355.184 345.529, 1356.324 346.950, 1356.764 347.500 C 1358.568 349.751, 1364.601 357.922, 1366 360.008 C 1366.825 361.238, 1367.975 362.752, 1368.556 363.373 C 1369.137 363.993, 1369.910 365.288, 1370.275 366.250 C 1370.639 367.212, 1371.401 368, 1371.969 368 C 1372.536 368, 1373 368.653, 1373 369.450 C 1373 370.248, 1373.563 371.260, 1374.250 371.700 C 1375.653 372.598, 1377.523 375.386, 1378.978 378.750 C 1379.513 379.988, 1380.412 381, 1380.975 381 C 1381.539 381, 1382 381.590, 1382 382.310 C 1382 385.090, 1387.943 389.765, 1392.259 390.380 C 1400.408 391.542, 1435.756 390.899, 1437.594 389.555 C 1440.102 387.721, 1438.644 386.333, 1433.614 385.766 C 1425.071 384.803, 1413.930 376.795, 1405.293 365.409 C 1404.079 363.809, 1402.054 361.304, 1400.793 359.843 C 1399.532 358.382, 1397.825 356.202, 1397 355 C 1396.175 353.797, 1394.656 351.843, 1393.623 350.657 C 1392.591 349.471, 1388.365 344, 1384.232 338.500 C 1380.098 333, 1376.422 328.275, 1376.062 328 C 1375.701 327.725, 1373.192 324.575, 1370.485 321 C 1367.777 317.425, 1365.098 313.953, 1364.531 313.285 C 1363.432 311.989, 1363.269 311.784, 1358.178 305.276 C 1354.654 300.772, 1354.697 300.432, 1359.330 296.180 C 1360.337 295.256, 1365.226 290.675, 1370.196 286 C 1388.356 268.916, 1401.982 261.235, 1420.920 257.407 C 1429.555 255.661, 1431.900 254.265, 1430.365 251.782 C 1429.940 251.095, 1425.301 250.971, 1416.612 251.416 C 1400.224 252.256, 1380.151 252.064, 1373.535 251.006 C 1364.669 249.587, 1362.356 254.813, 1371.150 256.396 C 1383.056 258.539, 1379.875 264.053, 1349.127 294.571 L 1328.500 315.044 1328.232 291.032 C 1327.882 259.641, 1328.578 257.975, 1342.776 256.210 C 1363.362 253.650, 1346.216 249.999, 1322.500 251.893 C 1317.550 252.288, 1309.450 252.286, 1304.500 251.888 C 1289.260 250.663, 1281.555 250.299, 1280.250 250.742 M 752.044 258.401 C 746.436 260.426, 746.096 262.324, 746.045 291.863 L 746 318.227 756.250 317.837 C 769.403 317.336, 774.017 315.297, 779 307.780 L 782.500 302.500 782.500 286.928 C 782.500 273.431, 782.267 271.124, 780.750 269.607 C 779.788 268.645, 779 267.409, 779 266.861 C 779 260.293, 761.774 254.886, 752.044 258.401" stroke="none" fill="#0b61c9" fill-rule="evenodd"/></svg>